<svg width="20" height="32" viewBox="0 0 20 32" fill="none" xmlns="http://www.w3.org/2000/svg">
  <path d="M18 14L13 19H7L2 19L7 14V4C7 2.89543 7.89543 2 9 2H12.5H16C17.1046 2 18 2.89543 18 4V14Z" fill="#006868" />
  <path
    d="M2 19L7 14M2 19V30M2 19L7 19M13 19L18 14M13 19V30M13 19H7M18 14V4C18 2.89543 17.1046 2 16 2H12.5H9C7.89543 2 7 2.89543 7 4V14M18 14V24M18 14L7 14M7 19V24"
    stroke="#006868" stroke-width="3" stroke-linecap="round" stroke-linejoin="round" />
  <path
    d="M13 12V4C13 2.89543 13.8954 2 15 2H16C17.1046 2 18 2.89543 18 4V12C18 13.1046 17.1046 14 16 14H15C13.8954 14 13 13.1046 13 12Z"
    fill="#2BBABA" stroke="#2BBABA" stroke-width="3" />
  <path d="M13 8V15" stroke="#2BBABA" stroke-width="3" stroke-linejoin="round" />
  <path d="M19.5 8C19.5 7.17157 18.8284 6.5 18 6.5C17.1716 6.5 16.5 7.17157 16.5 8H19.5ZM16.5 8V14H19.5V8H16.5Z"
    fill="#2BBABA" />
  <path d="M14 14L9 19H13L18 14H14Z" stroke="#2BBABA" stroke-width="3" stroke-linejoin="round" />
</svg>