<svg width="20" height="32" viewBox="0 0 20 32" fill="none" xmlns="http://www.w3.org/2000/svg">
  <path d="M18 14L13 19H7L2 19L7 14V4C7 2.89543 7.89543 2 9 2H12.5H16C17.1046 2 18 2.89543 18 4V14Z" fill="#006868" />
  <path
    d="M2 19L7 14M2 19V30M2 19L7 19M13 19L18 14M13 19V30M13 19H7M18 14V4C18 2.89543 17.1046 2 16 2H12.5H9C7.89543 2 7 2.89543 7 4V14M18 14V24M18 14L7 14M7 19V24"
    stroke="#006868" stroke-width="3" stroke-linecap="round" stroke-linejoin="round" />
  <path
    d="M7 12V4C7 2.89543 7.89543 2 9 2H10C11.1046 2 12 2.89543 12 4V12C12 13.1046 11.1046 14 10 14H9C7.89543 14 7 13.1046 7 12Z"
    fill="#2BBABA" stroke="#2BBABA" stroke-width="3" />
  <path d="M7 9V16" stroke="#2BBABA" stroke-width="3" stroke-linejoin="round" />
  <path d="M7 14L2 19H6L11 14H7Z" stroke="#2BBABA" stroke-width="3" stroke-linejoin="round" />
</svg>