<svg width="88" height="19" viewBox="0 0 88 19" fill="none" xmlns="http://www.w3.org/2000/svg">
  <path
    d="M3.50781 3.625V15H1.17188V3.625H3.50781ZM7.76562 8.35156V15H5.51562V6.54688H7.625L7.76562 8.35156ZM7.4375 10.4766H6.82812C6.82812 9.85156 6.90885 9.28906 7.07031 8.78906C7.23177 8.28385 7.45833 7.85417 7.75 7.5C8.04167 7.14062 8.38802 6.86719 8.78906 6.67969C9.19531 6.48698 9.64844 6.39062 10.1484 6.39062C10.5443 6.39062 10.9062 6.44792 11.2344 6.5625C11.5625 6.67708 11.8438 6.85938 12.0781 7.10938C12.3177 7.35938 12.5 7.6901 12.625 8.10156C12.7552 8.51302 12.8203 9.01562 12.8203 9.60938V15H10.5547V9.60156C10.5547 9.22656 10.5026 8.9349 10.3984 8.72656C10.2943 8.51823 10.1406 8.3724 9.9375 8.28906C9.73958 8.20052 9.49479 8.15625 9.20312 8.15625C8.90104 8.15625 8.63802 8.21615 8.41406 8.33594C8.19531 8.45573 8.01302 8.6224 7.86719 8.83594C7.72656 9.04427 7.61979 9.28906 7.54688 9.57031C7.47396 9.85156 7.4375 10.1536 7.4375 10.4766ZM18.6719 6.54688V8.14062H13.75V6.54688H18.6719ZM14.9688 4.46094H17.2188V12.4531C17.2188 12.6979 17.25 12.8854 17.3125 13.0156C17.3802 13.1458 17.4792 13.237 17.6094 13.2891C17.7396 13.3359 17.9036 13.3594 18.1016 13.3594C18.2422 13.3594 18.3672 13.3542 18.4766 13.3438C18.5911 13.3281 18.6875 13.3125 18.7656 13.2969L18.7734 14.9531C18.5807 15.0156 18.3724 15.0651 18.1484 15.1016C17.9245 15.138 17.6771 15.1562 17.4062 15.1562C16.9115 15.1562 16.4792 15.0755 16.1094 14.9141C15.7448 14.7474 15.4635 14.4818 15.2656 14.1172C15.0677 13.7526 14.9688 13.2734 14.9688 12.6797V4.46094ZM23.8438 15.1562C23.1875 15.1562 22.599 15.0521 22.0781 14.8438C21.5573 14.6302 21.1146 14.3359 20.75 13.9609C20.3906 13.5859 20.1146 13.151 19.9219 12.6562C19.7292 12.1562 19.6328 11.625 19.6328 11.0625V10.75C19.6328 10.1094 19.724 9.52344 19.9062 8.99219C20.0885 8.46094 20.349 8 20.6875 7.60938C21.0312 7.21875 21.4479 6.91927 21.9375 6.71094C22.4271 6.4974 22.9792 6.39062 23.5938 6.39062C24.1927 6.39062 24.724 6.48958 25.1875 6.6875C25.651 6.88542 26.0391 7.16667 26.3516 7.53125C26.6693 7.89583 26.9089 8.33333 27.0703 8.84375C27.2318 9.34896 27.3125 9.91146 27.3125 10.5312V11.4688H20.5938V9.96875H25.1016V9.79688C25.1016 9.48438 25.0443 9.20573 24.9297 8.96094C24.8203 8.71094 24.6536 8.51302 24.4297 8.36719C24.2057 8.22135 23.9193 8.14844 23.5703 8.14844C23.2734 8.14844 23.0182 8.21354 22.8047 8.34375C22.5911 8.47396 22.4167 8.65625 22.2812 8.89062C22.151 9.125 22.0521 9.40104 21.9844 9.71875C21.9219 10.0312 21.8906 10.375 21.8906 10.75V11.0625C21.8906 11.401 21.9375 11.7135 22.0312 12C22.1302 12.2865 22.2682 12.5339 22.4453 12.7422C22.6276 12.9505 22.8464 13.112 23.1016 13.2266C23.362 13.3411 23.6562 13.3984 23.9844 13.3984C24.3906 13.3984 24.7682 13.3203 25.1172 13.1641C25.4714 13.0026 25.776 12.7604 26.0312 12.4375L27.125 13.625C26.9479 13.8802 26.7057 14.125 26.3984 14.3594C26.0964 14.5938 25.7318 14.7865 25.3047 14.9375C24.8776 15.0833 24.3906 15.1562 23.8438 15.1562ZM30.9688 3V15H28.7109V3H30.9688ZM35.2031 3V15H32.9453V3H35.2031ZM39.4375 6.54688V15H37.1797V6.54688H39.4375ZM37.0391 4.34375C37.0391 4.01562 37.1536 3.74479 37.3828 3.53125C37.612 3.31771 37.9193 3.21094 38.3047 3.21094C38.6849 3.21094 38.9896 3.31771 39.2188 3.53125C39.4531 3.74479 39.5703 4.01562 39.5703 4.34375C39.5703 4.67188 39.4531 4.94271 39.2188 5.15625C38.9896 5.36979 38.6849 5.47656 38.3047 5.47656C37.9193 5.47656 37.612 5.36979 37.3828 5.15625C37.1536 4.94271 37.0391 4.67188 37.0391 4.34375ZM47.3594 12.0234C47.3594 11.8203 47.3281 11.638 47.2656 11.4766C47.2083 11.3099 47.099 11.1589 46.9375 11.0234C46.776 10.8828 46.5495 10.7448 46.2578 10.6094C45.9661 10.474 45.5885 10.3333 45.125 10.1875C44.6094 10.0208 44.1198 9.83333 43.6562 9.625C43.1979 9.41667 42.7917 9.17448 42.4375 8.89844C42.0885 8.61719 41.8125 8.29167 41.6094 7.92188C41.4115 7.55208 41.3125 7.1224 41.3125 6.63281C41.3125 6.15885 41.4167 5.72917 41.625 5.34375C41.8333 4.95312 42.125 4.61979 42.5 4.34375C42.875 4.0625 43.3177 3.84635 43.8281 3.69531C44.3438 3.54427 44.9089 3.46875 45.5234 3.46875C46.362 3.46875 47.0938 3.61979 47.7188 3.92188C48.3438 4.22396 48.8281 4.63802 49.1719 5.16406C49.5208 5.6901 49.6953 6.29167 49.6953 6.96875H47.3672C47.3672 6.63542 47.2969 6.34375 47.1562 6.09375C47.0208 5.83854 46.8125 5.63802 46.5312 5.49219C46.2552 5.34635 45.9062 5.27344 45.4844 5.27344C45.0781 5.27344 44.7396 5.33594 44.4688 5.46094C44.1979 5.58073 43.9948 5.74479 43.8594 5.95312C43.724 6.15625 43.6562 6.38542 43.6562 6.64062C43.6562 6.83333 43.7031 7.00781 43.7969 7.16406C43.8958 7.32031 44.0417 7.46615 44.2344 7.60156C44.4271 7.73698 44.6641 7.86458 44.9453 7.98438C45.2266 8.10417 45.5521 8.22135 45.9219 8.33594C46.5417 8.52344 47.0859 8.73438 47.5547 8.96875C48.0286 9.20312 48.4245 9.46615 48.7422 9.75781C49.0599 10.0495 49.2995 10.3802 49.4609 10.75C49.6224 11.1198 49.7031 11.5391 49.7031 12.0078C49.7031 12.5026 49.6068 12.9453 49.4141 13.3359C49.2214 13.7266 48.9427 14.0573 48.5781 14.3281C48.2135 14.599 47.7786 14.8047 47.2734 14.9453C46.7682 15.0859 46.2031 15.1562 45.5781 15.1562C45.0156 15.1562 44.4609 15.0833 43.9141 14.9375C43.3672 14.7865 42.8698 14.5599 42.4219 14.2578C41.9792 13.9557 41.625 13.5703 41.3594 13.1016C41.0938 12.6328 40.9609 12.0781 40.9609 11.4375H43.3125C43.3125 11.7917 43.3672 12.0911 43.4766 12.3359C43.5859 12.5807 43.7396 12.7786 43.9375 12.9297C44.1406 13.0807 44.3802 13.1901 44.6562 13.2578C44.9375 13.3255 45.2448 13.3594 45.5781 13.3594C45.9844 13.3594 46.3177 13.3021 46.5781 13.1875C46.8438 13.0729 47.0391 12.9141 47.1641 12.7109C47.2943 12.5078 47.3594 12.2786 47.3594 12.0234ZM55.0469 15.1562C54.3906 15.1562 53.8021 15.0521 53.2812 14.8438C52.7604 14.6302 52.3177 14.3359 51.9531 13.9609C51.5938 13.5859 51.3177 13.151 51.125 12.6562C50.9323 12.1562 50.8359 11.625 50.8359 11.0625V10.75C50.8359 10.1094 50.9271 9.52344 51.1094 8.99219C51.2917 8.46094 51.5521 8 51.8906 7.60938C52.2344 7.21875 52.651 6.91927 53.1406 6.71094C53.6302 6.4974 54.1823 6.39062 54.7969 6.39062C55.3958 6.39062 55.9271 6.48958 56.3906 6.6875C56.8542 6.88542 57.2422 7.16667 57.5547 7.53125C57.8724 7.89583 58.112 8.33333 58.2734 8.84375C58.4349 9.34896 58.5156 9.91146 58.5156 10.5312V11.4688H51.7969V9.96875H56.3047V9.79688C56.3047 9.48438 56.2474 9.20573 56.1328 8.96094C56.0234 8.71094 55.8568 8.51302 55.6328 8.36719C55.4089 8.22135 55.1224 8.14844 54.7734 8.14844C54.4766 8.14844 54.2214 8.21354 54.0078 8.34375C53.7943 8.47396 53.6198 8.65625 53.4844 8.89062C53.3542 9.125 53.2552 9.40104 53.1875 9.71875C53.125 10.0312 53.0938 10.375 53.0938 10.75V11.0625C53.0938 11.401 53.1406 11.7135 53.2344 12C53.3333 12.2865 53.4714 12.5339 53.6484 12.7422C53.8307 12.9505 54.0495 13.112 54.3047 13.2266C54.5651 13.3411 54.8594 13.3984 55.1875 13.3984C55.5938 13.3984 55.9714 13.3203 56.3203 13.1641C56.6745 13.0026 56.9792 12.7604 57.2344 12.4375L58.3281 13.625C58.151 13.8802 57.9089 14.125 57.6016 14.3594C57.2995 14.5938 56.9349 14.7865 56.5078 14.9375C56.0807 15.0833 55.5938 15.1562 55.0469 15.1562ZM64.3594 13.0938V9.32812C64.3594 9.05729 64.3151 8.82552 64.2266 8.63281C64.138 8.4349 64 8.28125 63.8125 8.17188C63.6302 8.0625 63.3932 8.00781 63.1016 8.00781C62.8516 8.00781 62.6354 8.05208 62.4531 8.14062C62.2708 8.22396 62.1302 8.34635 62.0312 8.50781C61.9323 8.66406 61.8828 8.84896 61.8828 9.0625H59.6328C59.6328 8.70312 59.7161 8.36198 59.8828 8.03906C60.0495 7.71615 60.2917 7.43229 60.6094 7.1875C60.9271 6.9375 61.3047 6.74219 61.7422 6.60156C62.1849 6.46094 62.6797 6.39062 63.2266 6.39062C63.8828 6.39062 64.4661 6.5 64.9766 6.71875C65.487 6.9375 65.888 7.26562 66.1797 7.70312C66.4766 8.14062 66.625 8.6875 66.625 9.34375V12.9609C66.625 13.4245 66.6536 13.8047 66.7109 14.1016C66.7682 14.3932 66.8516 14.6484 66.9609 14.8672V15H64.6875C64.5781 14.7708 64.4948 14.4844 64.4375 14.1406C64.3854 13.7917 64.3594 13.4427 64.3594 13.0938ZM64.6562 9.85156L64.6719 11.125H63.4141C63.1172 11.125 62.8594 11.1589 62.6406 11.2266C62.4219 11.2943 62.2422 11.3906 62.1016 11.5156C61.9609 11.6354 61.8568 11.776 61.7891 11.9375C61.7266 12.099 61.6953 12.276 61.6953 12.4688C61.6953 12.6615 61.7396 12.8359 61.8281 12.9922C61.9167 13.1432 62.0443 13.263 62.2109 13.3516C62.3776 13.4349 62.5729 13.4766 62.7969 13.4766C63.1354 13.4766 63.4297 13.4089 63.6797 13.2734C63.9297 13.138 64.1224 12.9714 64.2578 12.7734C64.3984 12.5755 64.4714 12.388 64.4766 12.2109L65.0703 13.1641C64.987 13.3776 64.8724 13.599 64.7266 13.8281C64.5859 14.0573 64.4062 14.2734 64.1875 14.4766C63.9688 14.6745 63.7057 14.8385 63.3984 14.9688C63.0911 15.0938 62.7266 15.1562 62.3047 15.1562C61.7682 15.1562 61.2812 15.0495 60.8438 14.8359C60.4115 14.6172 60.0677 14.3177 59.8125 13.9375C59.5625 13.5521 59.4375 13.1146 59.4375 12.625C59.4375 12.1823 59.5208 11.7891 59.6875 11.4453C59.8542 11.1016 60.099 10.8125 60.4219 10.5781C60.75 10.3385 61.1589 10.1589 61.6484 10.0391C62.138 9.91406 62.7057 9.85156 63.3516 9.85156H64.6562ZM72.5 6.54688V8.14062H67.5781V6.54688H72.5ZM68.7969 4.46094H71.0469V12.4531C71.0469 12.6979 71.0781 12.8854 71.1406 13.0156C71.2083 13.1458 71.3073 13.237 71.4375 13.2891C71.5677 13.3359 71.7318 13.3594 71.9297 13.3594C72.0703 13.3594 72.1953 13.3542 72.3047 13.3438C72.4193 13.3281 72.5156 13.3125 72.5938 13.2969L72.6016 14.9531C72.4089 15.0156 72.2005 15.0651 71.9766 15.1016C71.7526 15.138 71.5052 15.1562 71.2344 15.1562C70.7396 15.1562 70.3073 15.0755 69.9375 14.9141C69.5729 14.7474 69.2917 14.4818 69.0938 14.1172C68.8958 13.7526 68.7969 13.2734 68.7969 12.6797V4.46094Z"
    fill="#006868" />
  <path
    d="M87 8.42308L84.5 11.1154H81.5H79L81.5 8.42308V3.5C81.5 2.94771 81.9477 2.5 82.5 2.5H86C86.5523 2.5 87 2.94772 87 3.5V8.42308Z"
    fill="#BCEDED" />
  <path
    d="M79 11.1154L81.5 8.42308M79 11.1154V16.5M79 11.1154H81.5M84.5 11.1154L87 8.42308M84.5 11.1154V16.5M84.5 11.1154H81.5M87 8.42308H82H81.5M87 8.42308V3.5C87 2.94772 86.5523 2.5 86 2.5H82.5C81.9477 2.5 81.5 2.94771 81.5 3.5V8.42308M87 8.42308V12.1923V13.8077M81.5 11.1154V12.1923V13.8077"
    stroke="#006868" stroke-width="1.5" stroke-linecap="round" stroke-linejoin="round" />
</svg>